<svg width="144" height="24" viewBox="0 0 144 24" fill="none" xmlns="http://www.w3.org/2000/svg">
<g clip-path="url(#clip0_16336_174918)">
<g clip-path="url(#clip1_16336_174918)">
<path fill-rule="evenodd" clip-rule="evenodd" d="M120 24V0H144V24H120ZM136.688 14.6563V9.34375H142V14.6563H136.688ZM127.969 7.34375V2H142V7.34375H127.969ZM125.969 2V7.34375H122V2H125.969ZM134.688 9.34375V14.6563H122V9.34375H134.688ZM130.719 16.6563V22H142V16.6563H130.719ZM128.719 16.6563V22H122V16.6563H128.719Z" fill="#141414"/>
<path d="M79.125 0V2.53125H89.9531V24H93.2344V2.53125H104.062V0H79.125Z" fill="#141414"/>
<path d="M54.6094 0V24H75.5156V21.4688H57.8906V0H54.6094Z" fill="#141414"/>
<path d="M40.1719 0H36.8906V24H40.1719V0Z" fill="#141414"/>
<path fill-rule="evenodd" clip-rule="evenodd" d="M18.9972 12.0192L16.1598 11.5232L18.9596 10.8937C20.1578 10.6523 21.2145 10.0353 21.9285 9.06245C22.5862 8.12775 22.9244 7.0023 22.9056 5.85777C22.9056 5.09474 22.7741 4.33172 22.511 3.62593C22.2292 2.92013 21.797 2.29064 21.2521 1.79468C20.5756 1.20334 19.8052 0.764604 18.9596 0.497547C17.8322 0.135112 16.7404 0 15.5572 0L0 0.00158322V18L4.68592 24H15.5572C16.8224 24 18.0953 23.846 19.2979 23.4835C20.1998 23.1974 21.0266 22.7205 21.7406 22.091C22.3419 21.5378 22.7929 20.8702 23.0935 20.1072C23.3942 19.2869 23.5257 18.4476 23.5257 17.5701C23.5821 16.2539 23.2063 14.9759 22.4547 13.9076C21.5715 12.8585 20.3572 12.293 18.9972 12.0192ZM18.4147 20.2598C17.3436 21.0991 16.0006 21.375 14.6435 21.375H2.9287V13.0312H14.6435C16.391 13.0312 17.6631 13.3926 18.4523 14.1747C18.8469 14.5753 19.1475 15.0331 19.3542 15.5672C19.5609 16.0822 19.6549 16.6354 19.6361 17.2077C19.6549 17.78 19.5609 18.3522 19.3542 18.8673C19.1475 19.4014 18.8281 19.8783 18.4147 20.2598ZM2.9287 2.625H14.3858C15.1382 2.625 15.8592 2.72938 16.5732 2.95829C17.1182 3.12997 17.6067 3.43517 18.0201 3.83576C18.3771 4.17912 18.6402 4.61785 18.7905 5.09474C18.922 5.5144 18.9972 5.93407 18.9972 6.37281C18.9972 6.84969 18.9408 7.32658 18.8281 7.78439C18.7153 8.29943 18.4711 8.79539 18.1141 9.19598C17.7195 9.61564 17.2121 9.959 16.6672 10.1498C15.9344 10.4168 15.1804 10.5 14.3858 10.5H2.9287V2.625Z" fill="#141414"/>
</g>
</g>
<defs>
<clipPath id="clip0_16336_174918">
<rect width="144" height="24" fill="white"/>
</clipPath>
<clipPath id="clip1_16336_174918">
<rect width="144" height="24" fill="white"/>
</clipPath>
</defs>
</svg>
