<svg width="24" height="24" viewBox="0 0 24 24" fill="none" xmlns="http://www.w3.org/2000/svg">
<path fill-rule="evenodd" clip-rule="evenodd" d="M20.2574 2.30859H3.73881C2.94752 2.30859 2.30768 2.93329 2.30768 3.70565V20.2924C2.30768 21.0647 2.94752 21.6932 3.73881 21.6932H20.2574C21.0487 21.6932 21.6923 21.0647 21.6923 20.2962V3.70565C21.6923 2.93329 21.0487 2.30859 20.2574 2.30859ZM8.0587 18.8272H5.1813V9.57404H8.0587V18.8272ZM6.62 8.31328C5.6962 8.31328 4.95035 7.56743 4.95035 6.64742C4.95035 5.7274 5.6962 4.98155 6.62 4.98155C7.54001 4.98155 8.28586 5.7274 8.28586 6.64742C8.28586 7.56364 7.54001 8.31328 6.62 8.31328ZM18.8262 18.8272H15.9526V14.3293C15.9526 13.2579 15.9337 11.876 14.4571 11.876C12.9616 11.876 12.7345 13.0459 12.7345 14.2536V18.8272H9.86465V9.57404H12.6209V10.8386H12.6588C13.0412 10.1117 13.9801 9.34309 15.3772 9.34309C18.2886 9.34309 18.8262 11.2588 18.8262 13.7501V18.8272Z" fill="#0C0C0C"/>
</svg>
